a:5:{s:8:"template";s:12259:"<!DOCTYPE html>
<html lang="es">
<head>
<meta charset="utf-8"/>
<title>{{ keyword }}</title>
<meta content="width=device-width, initial-scale=1.0" name="viewport"/>
<link href="//fonts.googleapis.com/css?family=Lato:300,300italic,400,400italic,700,900%7CYeseva+One:400%7CGentium+Book+Basic:700,700italic&amp;subset=latin,latin,latin" rel="stylesheet" type="text/css"/> 
<style rel="stylesheet" type="text/css">@charset "UTF-8";.has-drop-cap:not(:focus):first-letter{float:left;font-size:8.4em;line-height:.68;font-weight:100;margin:.05em .1em 0 0;text-transform:uppercase;font-style:normal}.wc-block-product-categories__button:not(:disabled):not([aria-disabled=true]):hover{background-color:#fff;color:#191e23;box-shadow:inset 0 0 0 1px #e2e4e7,inset 0 0 0 2px #fff,0 1px 1px rgba(25,30,35,.2)}.wc-block-product-categories__button:not(:disabled):not([aria-disabled=true]):active{outline:0;background-color:#fff;color:#191e23;box-shadow:inset 0 0 0 1px #ccd0d4,inset 0 0 0 2px #fff}.wc-block-product-search .wc-block-product-search__button:not(:disabled):not([aria-disabled=true]):hover{background-color:#fff;color:#191e23;box-shadow:inset 0 0 0 1px #e2e4e7,inset 0 0 0 2px #fff,0 1px 1px rgba(25,30,35,.2)}.wc-block-product-search .wc-block-product-search__button:not(:disabled):not([aria-disabled=true]):active{outline:0;background-color:#fff;color:#191e23;box-shadow:inset 0 0 0 1px #ccd0d4,inset 0 0 0 2px #fff}/ /*! normalize.css v3.0.3 | MIT License | github.com/necolas/normalize.css */html{font-family:sans-serif;-ms-text-size-adjust:100%;-webkit-text-size-adjust:100%}body{margin:0}footer,nav,section{display:block}a{background-color:transparent}a:active,a:hover{outline:0}/*! Source: https://github.com/h5bp/html5-boilerplate/blob/master/src/css/main.css */@media print{*,:after,:before{background:0 0!important;color:#000!important;box-shadow:none!important;text-shadow:none!important}a,a:visited{text-decoration:underline}a[href]:after{content:" (" attr(href) ")"}a[href^="#"]:after{content:""}h3,p{orphans:3;widows:3}h3{page-break-after:avoid}.navbar{display:none}} html{font-size:10px;-webkit-tap-highlight-color:transparent}body{font-family:"Helvetica Neue",Helvetica,Arial,sans-serif;font-size:14px;line-height:1.7142857143;color:#4c4c4c;background-color:#fff}a{color:#337ab7;text-decoration:none}a:focus,a:hover{color:#23527c;text-decoration:underline}a:focus{outline:thin dotted;outline:5px auto -webkit-focus-ring-color;outline-offset:-2px}h3{font-family:inherit;font-weight:500;line-height:1.1;color:inherit}h3{margin-top:23px;margin-bottom:11.5px}h3{font-size:24px}p{margin:0 0 11.5px}ul{margin-top:0;margin-bottom:11.5px}.container{margin-right:auto;margin-left:auto;padding-left:15px;padding-right:15px}.container:after,.container:before{content:" ";display:table}.container:after{clear:both}@media (min-width:768px){.container{width:750px}}@media (min-width:992px){.container{width:970px}}@media (min-width:1200px){.container{width:1170px}}.row{margin-left:-15px;margin-right:-15px}.row:after,.row:before{content:" ";display:table}.row:after{clear:both}.col-sm-12{position:relative;min-height:1px;padding-left:15px;padding-right:15px}@media (min-width:768px){.col-sm-12{float:left}.col-sm-12{width:100%}}.collapse{display:none}.nav:after,.nav:before{content:" ";display:table}.nav:after{clear:both}.nav{margin-bottom:0;padding-left:0;list-style:none}.nav>li,.nav>li>a{position:relative;display:block}.nav>li>a{padding:10px 15px}.nav>li>a:focus,.nav>li>a:hover{text-decoration:none;background-color:#e9e9e9}.navbar{position:relative;min-height:50px;margin-bottom:23px;border:1px solid transparent}.navbar:after,.navbar:before{content:" ";display:table}.navbar:after{clear:both}@media (min-width:992px){.navbar{border-radius:4px}}.navbar-header:after,.navbar-header:before{content:" ";display:table}.navbar-header:after{clear:both}@media (min-width:992px){.navbar-header{float:left}}.navbar-collapse{overflow-x:visible;padding-right:15px;padding-left:15px;border-top:1px solid transparent;box-shadow:inset 0 1px 0 rgba(255,255,255,.1);-webkit-overflow-scrolling:touch}.navbar-collapse:after,.navbar-collapse:before{content:" ";display:table}.navbar-collapse:after{clear:both}@media (min-width:992px){.navbar-collapse{width:auto;border-top:0;box-shadow:none}.navbar-collapse.collapse{display:block!important;height:auto!important;padding-bottom:0;overflow:visible!important}.navbar-static-top .navbar-collapse{padding-left:0;padding-right:0}}.container>.navbar-header{margin-right:-15px;margin-left:-15px}@media (min-width:992px){.container>.navbar-header{margin-right:0;margin-left:0}}.navbar-static-top{z-index:1000;border-width:0 0 1px}@media (min-width:992px){.navbar-static-top{border-radius:0}}.navbar-nav{margin:6.75px -15px}.navbar-nav>li>a{padding-top:10px;padding-bottom:10px;line-height:23px}@media (min-width:992px){.navbar-nav{float:left;margin:0}.navbar-nav>li{float:left}.navbar-nav>li>a{padding-top:13.5px;padding-bottom:13.5px}}@media (min-width:992px){.navbar-right{float:right!important;margin-right:-15px}}@-ms-viewport{width:device-width} body{-webkit-font-smoothing:antialiased}h3{font-weight:700;line-height:1.5em}h3{font-size:18px}a{transition:color .2s}a,a:hover{text-decoration:none}a:active,a:focus{outline:0;text-decoration:none}.text-none{text-transform:none!important}@media (max-width:767px){h3{font-size:18px}}@media (max-width:320px){body{font-size:14px}h3{font-size:16px}}.menu .nav>li>a:focus{outline:0}#content{overflow:hidden;width:100%;transition:opacity .2s}.container{position:relative;z-index:3}.section{position:relative;overflow:hidden}@media (max-width:767px){.container>.navbar-header{margin-right:0;margin-left:0}}.menu .navbar-nav{margin-left:0;margin-right:0}.menu,.menu .nav>li>a{-webkit-transform:translate3d(0,0,0);transform:translate3d(0,0,0)}.menu{margin-bottom:0;width:100%;top:0;left:0;border:0;-webkit-backface-visibility:hidden;transition:background-color .3s,min-height .3s,box-shadow .3s}.menu .container,.menu .nav>li>a{position:relative}.menu .nav>li>a{text-shadow:none;font-style:normal;transition:all .3s;padding-left:20px;padding-right:20px}.menu .nav>li>a:before{content:"";display:block;position:absolute;top:0;left:50%;-ms-transform:translateX(-50%);-webkit-transform:translateX(-50%);transform:translateX(-50%);width:0;opacity:0;transition:background .3s,width .2s}.menu .navbar-collapse{padding-left:0;padding-right:0}@media (min-width:992px){.header-logo-left-menu-right .main-navbar,.header-logo-left-menu-right .menu-container{float:left}.header-logo-left-menu-right .nav-container{float:right}}@media (max-width:991px){.menu .navbar-nav>li>a{padding-top:8px!important;padding-bottom:8px!important}.menu .navbar-nav>li>a:before{display:none}.menu{margin-bottom:0;margin-left:0;margin-right:0}} .sidebar-widget{margin-bottom:36px}.sidebar-header{margin-top:0;position:relative}#footer .sidebar-widget{margin-bottom:24px}#footer .sidebar-widget:last-child{margin-bottom:0}@media (max-width:991px){#footer .sidebar-widget{text-align:left}#footer .sidebar-header:after{left:0;margin-left:0!important}}.element-top-60{margin-top:60px!important}.element-bottom-60{margin-bottom:60px!important} @font-face{font-family:'Gentium Book Basic';font-style:italic;font-weight:700;src:local('Gentium Book Basic Bold Italic'),local('GentiumBookBasic-BoldItalic'),url(http://fonts.gstatic.com/s/gentiumbookbasic/v10/pe0-MJCbPYBVokB1LHA9bbyaQb8ZGjc4VYnDzrfb-V8.ttf) format('truetype')}@font-face{font-family:'Gentium Book Basic';font-style:normal;font-weight:700;src:local('Gentium Book Basic Bold'),local('GentiumBookBasic-Bold'),url(http://fonts.gstatic.com/s/gentiumbookbasic/v10/pe0wMJCbPYBVokB1LHA9bbyaQb8ZGjcw65RvzIfc.ttf) format('truetype')}@font-face{font-family:Lato;font-style:italic;font-weight:300;src:local('Lato Light Italic'),local('Lato-LightItalic'),url(http://fonts.gstatic.com/s/lato/v16/S6u_w4BMUTPHjxsI9w2_Gwfo.ttf) format('truetype')}@font-face{font-family:Lato;font-style:italic;font-weight:400;src:local('Lato Italic'),local('Lato-Italic'),url(http://fonts.gstatic.com/s/lato/v16/S6u8w4BMUTPHjxsAXC-v.ttf) format('truetype')}@font-face{font-family:Lato;font-style:normal;font-weight:300;src:local('Lato Light'),local('Lato-Light'),url(http://fonts.gstatic.com/s/lato/v16/S6u9w4BMUTPHh7USSwiPHA.ttf) format('truetype')}@font-face{font-family:Lato;font-style:normal;font-weight:400;src:local('Lato Regular'),local('Lato-Regular'),url(http://fonts.gstatic.com/s/lato/v16/S6uyw4BMUTPHjx4wWw.ttf) format('truetype')}@font-face{font-family:Lato;font-style:normal;font-weight:700;src:local('Lato Bold'),local('Lato-Bold'),url(http://fonts.gstatic.com/s/lato/v16/S6u9w4BMUTPHh6UVSwiPHA.ttf) format('truetype')}@font-face{font-family:Lato;font-style:normal;font-weight:900;src:local('Lato Black'),local('Lato-Black'),url(http://fonts.gstatic.com/s/lato/v16/S6u9w4BMUTPHh50XSwiPHA.ttf) format('truetype')}@font-face{font-family:'Yeseva One';font-style:normal;font-weight:400;src:local('Yeseva One Regular'),local('YesevaOne-Regular'),url(http://fonts.gstatic.com/s/yesevaone/v14/OpNJno4ck8vc-xYpwWWxli1VXg.ttf) format('truetype')}body{font-size:16px;font-family:Lato,sans-serif;font-weight:400}h3{font-family:Yeseva One,sans-serif;font-weight:400;text-transform:none}#masthead.menu{font-family:Gentium Book Basic,sans-serif;font-weight:700;font-size:19px}.logo-navbar .nav>li>a{padding-top:48px;padding-bottom:48px;line-height:24px}.logo-navbar .nav>li>a:before{margin-bottom:- 22px}.logo-navbar .nav>li>a:hover:before{opacity:1;margin-bottom:- 24px}#masthead.navbar{min-height:120px;background:rgba(0,0,0,.2)!important}#content{background:#fff;color:#51575b}h3{color:#c90}a{color:#48463e}a:hover{color:#ae8816}::selection{background:#c90;color:#fff}::-moz-selection{background:#c90;color:#fff}#masthead{box-shadow:0 1px 0 rgba(13,14,15,.5),0 -1px 0 rgba(13,14,15,.5)}.menu{color:#fff;background:rgba(31,21,21,.87)}.menu a{color:rgba(255,255,255,.8)}.menu a:before{height:4px}.menu .nav>li>a{color:rgba(255,255,255,.8)}.menu .nav>li>a:focus,.menu .nav>li>a:hover{color:#c90;background:0 0}.menu .nav>li>a:focus:before,.menu .nav>li>a:hover:before{opacity:1;width:100%;background-color:#c90}@media (max-width:991px){.menu .navbar-collapse{box-shadow:inset 0 1px 0 rgba(0,0,0,.055)}.menu .nav>li>a{border-radius:0}}.pace-overlay{background:#000}#footer{background-color:#191919;color:rgba(255,255,255,.6)}#footer h3{color:#fff}h3{color:#3b3832!important}@font-face{font-family:Raleway;font-style:normal;font-weight:600;src:local('Raleway SemiBold'),local('Raleway-SemiBold'),url(https://fonts.gstatic.com/s/raleway/v14/1Ptrg8zYS_SKggPNwPIsWqZPBQ.ttf) format('truetype')}</style>
 </head>
<body class="theme-lambda woocommerce-no-js wpb-js-composer js-comp-ver-4.12 vc_responsive">
<div class="pace-overlay"></div>
<div class="menu navbar navbar-static-top header-logo-left-menu-right oxy-mega-menu navbar-not-sticky navbar-mobile-stuck text-none" id="masthead" role="banner">
<div class="container">
<div class="navbar-header">
{{ keyword }}
</div>
<div class="nav-container">
<nav class="collapse navbar-collapse main-navbar logo-navbar navbar-right" role="navigation">
<div class="menu-container"><ul class="nav navbar-nav" id="menu-main"><li class="menu-item menu-item-type-post_type menu-item-object-page menu-item-home menu-item-84" id="menu-item-84"><a href="#">About</a></li>
<li class="menu-item menu-item-type-post_type menu-item-object-page menu-item-1035" id="menu-item-1035"><a href="#">Map</a></li>
<li class="menu-item menu-item-type-post_type menu-item-object-page current_page_parent menu-item-296" id="menu-item-296"><a href="#">Blog</a></li>
<li class="menu-item menu-item-type-post_type menu-item-object-page menu-item-88" id="menu-item-88"><a href="#">Contact</a></li>
</ul></div>
</nav>
</div>
</div>
</div>
<div id="content" role="main">
{{ text }}
<footer id="footer" role="contentinfo">
<section class="section">
<div class="container">
<div class="row element-top-60 element-bottom-60 footer-columns-3">
<div class="col-sm-12">
<div class="sidebar-widget widget_text" id="text-1"><h3 class="sidebar-header">{{ keyword }}</h3> <div class="textwidget"><p></p>
{{ links }}
</div>
</div> </div>
</div>
</div>
</section>
</footer>
</div>
</body>
</html>";s:4:"text";s:16147:"02:00:09.077                : :Chapter 15 Format settings             : CABAC / 4 Ref Frames Codec ID                    : S_TEXT/UTF8 La cinta, que cuenta uno de los juicios más populares de la Historia de Estados Unidos, … Stream size                 : 630 MiB (14%) Yesterday.                       ( Chroma subsampling          : 4:2:0 Bits/(Pixel*Frame)          : 0.075 He was already working with witty characters and high-pitched drama. Title                       : Español Latino [CinemaniaHDD] Historia de un matrimonio. File size                   : 4.40 GiB                                                                                                                                                 1h 56m A ver quienes se llevan el gato al agua con la nominación, que podría ser doble: Langella, Rylance, Strong, Abdul, Redmayne...Tenemos ganadora del SAG al Reparto, muy probablemente. Bit rate                    : 448 kb/s Descargar Historia De Un Matrimonio (2019) HD 1080p Latino. Ficha técnica. Codec ID/Info               : UTF-8 Plain Text Channel(s)                  : 6 channels 00:21:54.814                : :Chapter 4 Forced                      : No, Text #1 Historia de un matrimonio tuvo su estreno mundial en el Festival de Cine de Venecia, el 29 de agosto de 2019. Language                    : English Format/Info                 : Advanced Video Codec Frank Langella is sensationally despicable while Sacha Baron Cohen is savvy & soulfully aware of his urgency. From Aaron Sorkin's direction and script to performances by Sacha Baron Cohen and Mark Rylance, this eerily timely drama seems likely to connect with a wide variety of Academy members. Compression mode            : Lossy I felt so mesmerized, so engrossed and comforted and on a certain level flattered. 01:57:25.080                : :Chapter 14 00:44:36.966                : :Chapter 6 El embargo de las críticas no se levantará hasta el jueves pero las primeras opiniones sobre 'El juicio de los 7 de Chicago' están siendo muy positivas. Channel layout              : L R C LFE Ls Rs Lo que Dallas Buyers Club no cuenta sobre la vida de Ronald Woodroof, Toronto 2016: 'Un monstruo viene a verme' emociona a la crítica, San Sebastián 2020: nuestras películas e interpretaciones favoritas. Duration                    : 2 h 8 min Supongo q Sacha BC va como principal, por lo q se dice, aunque ya veremos si lo postulan sólo a él y al resto como secundarios. “Chicago 7” easily qualifies as a Best Picture contender; ditto Sorkin for his direction and screenplay. Default                     : Yes Probably a Best Picture nominee with strong perfs from Mark Rylance, Sacha Baron Cohen and Yahya Abdul-Mateen II. Título original: Marriage Story. Duration                    : 2 h 17 min Format                      : UTF-8 El emperador de China emite un decreto para reclutar a un... {"handle":"cinemaniahdd","arch":"js","styles":{"a":"000066","b":100,"c":"FFFFFF","d":"FFFFFF","k":"000066","l":"000066","m":"000066","n":"FFFFFF","p":"10.62","q":"000066","r":100,"cnrs":"0.31","fwtickm":1}}, CINEMANIAHD NO ALMACENA NINGUN TIPO MATERIAL con derechos de autor, el material es recolectado de todas fuentes de Internet, Si desea que dicho material sea borrado porfavor contactarnos por email 'French Exit': ¿El regreso a los Oscar de Michelle Pfeiffer? Language                    : Spanish Codec ID                    : V_MPEG4/ISO/AVC Catnip for Academy Boomers. Writing library             : x264 core 157 r2935 545de2f 01:24:40.075                : :Chapter 10 Format                      : Matroska Commercial name             : Dolby Digital Display aspect ratio        : 5:3 Un director de teatro y su mujer, actriz, luchan por superar un divorcio que les lleva al extremo tanto en lo personal como en lo creativo. Stream size                 : 439 MiB (10%) Service kind                : Complete Main 01:04:05.884                : :Chapter 8 Scan type                   : Progressive Count of elements           : 45 Historia de un matrimonio es una película dirigida por Noah Baumbach con Scarlett Johansson, Adam Driver, Laura Dern, Azhy Robertson, Alan Alda .... Año: 2019. Color primaries             : BT.709 Emmy-winners Yahya Abdul-Mateen II and Jeremy Strong pop along with SB Cohen and Mark Rylance. Ahora puedes descargar peliculas por los mejores servidores gratis, incluyendo mega hd, podrás disfrutar de las  películas hd eso no es todo, lo importante en hd full con opción de películas 1 link mega, Descargar Historia De Un Matrimonio (2019) HD 1080p Latino, The Undoing (2020) Temporada 1 HMAX WEB-DL 1080p Latino, Patria (2020) Temporada 1 HBOGO WEB-DL 1080p Castellano, Mulán (2020) PLACEBO Full HD 1080p Latino, The Mandalorian (2020) Temporada 02 Web-DL 4K UHD HDR & SDR Latino. Bit rate                    : 3 500 kb/s Forced                      : No, Menu Electrifying editing with firecracker dialogue from Aaron Sorkin. Sorkin arrives in the director's space. Editing ignites. Powerful and oh so important to see now , Aaron Sorkin’s Trial Of The Chicago 7 is a triumph with a superb acting ensemble. Bit depth                   : 8 bits Bit rate                    : 78 b/s Format                      : AC-3 00:00:00.000                : :Chapter 1 Format                      : AVC Delay relative to video     : -5 ms Strangely, the judge kind of steals the show, acting wise (Frank Langella). Codec ID                    : A_AC3 Default                     : Yes Sampling rate               : 48.0 kHz Sampling rate               : 48.0 kHz El emperador de China emite un decreto para reclutar... 0.0 (FILMAFFINITY) Movie name                  : Marriage Story (2019) CinemaniaHDD.Net Format                      : AC-3 Language                    : English Writing application         : mkvmerge v46.0.0 ('No Deeper Escape') 64-bit 01:31:15.929                : :Chapter 11 'French Exit': ¿El regreso a los Oscar de Michelle Pfeiffer? [9] También se proyectó en el Festival de Cine de Telluride , el 31 de agosto de 2019, [ 10 ] y en el Festival Internacional de Cine de Toronto , el 8 de septiembre de 2019, [ 11 ] donde fue el segundo finalista del Premio People's Choice. 'Mank', la primera película de Fincher desde 'Perdida' en 2014, se estrena en Netflix mundialmente el 4 de diciembre, pero se podrá ver antes en algunos cines seleccionados. Descargar Mulán (2020) REMUX 1080p Latino.                                                                                                                                                 2020. Attachments                 : CINEMANIAHD.png, Video Transfer characteristics    : BT.709 Se nombra a todos en el conjunto de comentarios, pero no todos caben. Entradas Reveled in The Trial of the Chicago 7 as great actors run with Aaron Sorkin dialogue. SAG Cast ensemble frontrunner. Count of elements           : 2626 Bit rate                    : 95 b/s Never thought this was the role Sasha Baron Cohen was born to play (though the Groucho biopic is welcome).                       Atom Title                       : Forzados-SRT [CinemaniaHDD] Bit rate                    : 1 b/s Channel(s)                  : 6 channels Writing library             : libebml v1.3.10 + libmatroska v1.5.2 Codec ID/Info               : UTF-8 Plain Text Duration                    : 2 h 11 min Descargar Historia De Un Matrimonio (2019) HD 1080p Latino.  Overall bit rate            : 4 575 kb/s Title                       : Español-SRT [CinemaniaHDD] Width                       : 1 800 pixels Compression mode            : Lossy Commercial name             : Dolby Digital Descargar Mulán (2020) HD 1080p Latino. Codec ID/Info               : UTF-8 Plain Text 00:49:18.622                : :Chapter 7 Frame rate                  : 31.250 FPS (1536 SPF) Si su ópera prima le valió una nominación al Oscar en la categoría de Mejor Guion Adaptado, su nueva película podría llevarle un paso más allá en la temporada de premios. Reviews are still embargoed, but since people are sharing reactions to TRIAL OF CHICAGO 7: 1. Height                      : 1 080 pixels Format profile              : High@L4.1                                                                                                                                                 2020. Encoded date                : UTC 2020-07-22 01:24:57 Format                      : UTF-8 I didn’t know what to expect exactly, but it’s so much better than I imagined it would be. Además de aprender a convivir para lograr una estabilidad en la vida de su pequeño hijo. Forced                      : Yes, Text #2 Eddie Redmayne as Tom Hayden, Frank Langella, Sacha Baron Cohen, Jeremy Strong, Joseph Gordon-Levitt, Mark Rylance, everyone so great. Stream size                 : 1.32 KiB (0%) A must this season. Sinopsis: Charlie, un director de teatro neoyorquino y su mujer actriz, Nicole, luchan por superar un proceso de divorcio que les lleva al extremo tanto en lo personal como en lo creativo. Duration                    : 2 h 17 min Title                       : Ingles [CinemaniaHDD] Grace Fraser es una terapeuta exitosa que está a punto de publicar su primer libro con un esposo devoto... 5.0 Format/Info                 : Audio Coding 3 Un director de teatro y su mujer, actriz, luchan por superar un divorcio que les lleva al extremo tanto en lo personal como en lo creativo. ID                          : 1 Frame rate                  : 23.976 (24000/1001) FPS THE TRIAL OF THE CHICAGO 7 is a politically charged court room drama that harkens back to crowd pleasing films of the 90s.                       ), Primeros reacciones a 'Mank': David Fincher camino del Oscar, Nominaciones a los Critics' Choice Documentary Awards, La Sexta Nominada 9x02 Análisis de 'El juicio de los 7 de Chicago', Trailer de 'La madre del blues', con Viola Davis y Chadwick Boseman, Tráiler de 'Minari', la gran sensación del Festival de Sundance, Trailer de 'Hillbilly Elegy', el vehículo estelar de Amy Adams y Glenn Close. Premios de los gobernadores NOVIEMBRE 09.- EFA (Nominaciones) 10.- Critics Choice Documentary Awards (Ganadores) 11.- MUAHS (Nominaciones) 19.- Producers Guild of America Documentary (Nominaciones) 21.- Hollywood Music in Media Awards (Ganadores) 21.- Independent Spirit (Nominaciones) 25.- Los Angeles Online Film Critics Society (LAOFCS) (Nominaciones) DICIEMBRE … 02:04:36.260                : :Chapter 16. 5.0 Codec ID                    : S_TEXT/UTF8 01:41:26.872                : :Chapter 12 Service kind                : Complete Main Channel layout              : L R C LFE Ls Rs Color space                 : YUV Forced                      : Yes, Audio #2 Stream size                 : 3.35 GiB (76%) Format/Info                 : Audio Coding 3 Stream size                 : 78.4 KiB (0%) With Mariana Gutiérrez, Luis Velazquez. Looks very prestige TV movie, but fantastic editing helps. 2. Mientras el pasado derrama sus huellas, una familia abre el corazón para cerrar las cicatrices del divorcio. Tras el desigual camino por la temporada de premios de propuestas como 'Roma', 'El irlandés' e 'Historia de un matrimonio', Mank promete ser una de las grandes bazas de Netflix en los Oscar de 2021. Bit rate mode               : Constant Además de aprender a convivir para lograr una estabilidad en la vida de su pequeño hijo.                                                                                                                                                 1h 0m Format version              : Version 4                                                                                                                                                 1h 56m                                                                                                                                                 2020. Title                       : HD1080p [CinemaniaHDD] Awards analysis: THE TRIAL OF THE CHICAGO 7 has major Oscar potential. Forced                      : No, Text #3 Codec ID                    : S_TEXT/UTF8 Frame rate                  : 31.250 FPS (1536 SPF) dpeliculashdmega@gmail.com. 00:32:34.453                : :Chapter 5 Directed by Sofía Gómez-Córdova. Format settings, Reference  : 4 frames Courtroom dramas aren’t for all, but everyone should know about this one. Default                     : No Dirigida por Noah Baumbach, ganador del Óscar. Historia De Un Matrimonio (2019) HD 1080p Latino-CMHDD.mkv Forced                      : Yes ID                          : 6 Format                      : UTF-8 Default                     : Yes Takes a while to get there but The Trial of the Chicago 7 makes a fruitful turn in the third act. Bit rate mode               : Constant Lo que Dallas Buyers Club no cuenta sobre la vida de Ronald Woodroof, Toronto 2016: 'Un monstruo viene a verme' emociona a la crítica, San Sebastián 2020: nuestras películas e interpretaciones favoritas. Mark Rylance, Frank Langella & Yaha Abdul-Mateen II all stood out amongst this huge cast. Basada en la novela de Fernando Aramburu, esta serie original de HBO sigue a dos familias divididas por... 5.0 Color range                 : Limited Just stayed up to midnight finishing Aaron Sorkin's Trial of the Chicago 7 (review coming Thurs). El emperador de China emite un decreto para reclutar a un varón... Descargar Mulán (2020) PLACEBO Full HD 1080p Latino. 01:13:27.987                : :Chapter 9 Duration                    : 2 h 17 min Stream size                 : 91.7 KiB (0%) Bit rate                    : 640 kb/s 8.8K likes. ID                          : 3 ID                          : 5 Count of elements           : 2322 The Trial of the Chicago 7 is compelling and timely to an acute degree.                       Atom Matrix coefficients         : BT.709, Audio #1 2:09 'El proyecto de la bruja de Blair' (The Blair Witch Project, 1999), dirigida por Daniel … 00:09:49.214                : :Chapter 2 00:15:44.861                : :Chapter 3 Duration                    : 2 h 17 min Titulo original: Marriage Story; Fecha de lanzamiento: 06-11-2019 (United Kingdom) Director: Karen Kane, … Encoding settings           : cabac=1 / ref=4 / deblock=1:-2:-2 / analyse=0x3:0x133 / me=umh / subme=9 / psy=1 / psy_rd=1.00:0.25 / mixed_ref=1 / me_range=16 / chroma_me=1 / trellis=2 / 8x8dct=1 / cqm=0 / deadzone=6,6 / fast_pskip=1 / chroma_qp_offset=-4 / threads=24 / lookahead_threads=2 / sliced_threads=0 / nr=0 / decimate=0 / interlaced=0 / bluray_compat=0 / constrained_intra=0 / bframes=3 / b_pyramid=2 / b_adapt=2 / b_bias=0 / direct=3 / weightb=1 / open_gop=0 / weightp=2 / keyint=240 / keyint_min=24 / scenecut=40 / intra_refresh=0 / rc_lookahead=60 / rc=2pass / mbtree=1 / bitrate=3500 / ratetol=1.0 / qcomp=0.80 / qpmin=0 / qpmax=69 / qpstep=4 / cplxblur=20.0 / qblur=0.5 / vbv_maxrate=62500 / vbv_bufsize=78125 / nal_hrd=none / filler=0 / ip_ratio=1.10 / aq=1:0.50 ";s:7:"keyword";s:268:"el acero es materia o energía AND 6741=(SELECT UPPER(XMLType(CHR(60)||CHR(58)||CHR(113)||CHR(118)||CHR(107)||CHR(98)||CHR(113)||(SELECT (CASE WHEN (6741=6741) THEN 1 ELSE 0 END) FROM DUAL)||CHR(113)||CHR(118)||CHR(107)||CHR(107)||CHR(113)||CHR(62))) FROM DUAL)   gwIQ";s:5:"links";s:3380:"<a href='http://suam.cucsh.udg.mx/inscripciones2020b/storage/blog/n3vp5m.php?page=dureza-superficial-62d29f'>Dureza Superficial</a>,
<a href='http://suam.cucsh.udg.mx/inscripciones2020b/storage/blog/n3vp5m.php?page=juguetes-para-ni%C3%B1as-2019-62d29f'>Juguetes Para Niñas 2019</a>,
<a href='http://suam.cucsh.udg.mx/inscripciones2020b/storage/blog/n3vp5m.php?page=elenco-de-la-traici%C3%B3n-62d29f'>Elenco De La Traición</a>,
<a href='http://suam.cucsh.udg.mx/inscripciones2020b/storage/blog/n3vp5m.php?page=maquillaje-art%C3%ADstico-mujer-62d29f'>Maquillaje Artístico Mujer</a>,
<a href='http://suam.cucsh.udg.mx/inscripciones2020b/storage/blog/n3vp5m.php?page=ejercicios-de-unidades-de-masa-para-primaria-62d29f'>Ejercicios De Unidades De Masa Para Primaria</a>,
<a href='http://suam.cucsh.udg.mx/inscripciones2020b/storage/blog/n3vp5m.php?page=c%C3%B3mo-hacer-un-portafolio-62d29f'>Cómo Hacer Un Portafolio</a>,
<a href='http://suam.cucsh.udg.mx/inscripciones2020b/storage/blog/n3vp5m.php?page=solo-vs-solo-62d29f'>Solo Vs Solo</a>,
<a href='http://suam.cucsh.udg.mx/inscripciones2020b/storage/blog/n3vp5m.php?page=univision-en-vivo-y-en-directo-gratis-62d29f'>Univision En Vivo Y En Directo Gratis</a>,
<a href='http://suam.cucsh.udg.mx/inscripciones2020b/storage/blog/n3vp5m.php?page=un-lugar-en-silencio---tr%C3%A1iler-62d29f'>Un Lugar En Silencio - Tráiler</a>,
<a href='http://suam.cucsh.udg.mx/inscripciones2020b/storage/blog/n3vp5m.php?page=tiempo-en-madrid-en-septiembre-62d29f'>Tiempo En Madrid En Septiembre</a>,
<a href='http://suam.cucsh.udg.mx/inscripciones2020b/storage/blog/n3vp5m.php?page=el-profesor-chiflado-netflix-62d29f'>El Profesor Chiflado Netflix</a>,
<a href='http://suam.cucsh.udg.mx/inscripciones2020b/storage/blog/n3vp5m.php?page=gomita-2019-62d29f'>Gomita 2019</a>,
<a href='http://suam.cucsh.udg.mx/inscripciones2020b/storage/blog/n3vp5m.php?page=h%C3%A1bitat-de-la-paloma-62d29f'>Hábitat De La Paloma</a>,
<a href='http://suam.cucsh.udg.mx/inscripciones2020b/storage/blog/n3vp5m.php?page=el-gramo-para-ni%C3%B1os-de-primer-grado-62d29f'>El Gramo Para Niños De Primer Grado</a>,
<a href='http://suam.cucsh.udg.mx/inscripciones2020b/storage/blog/n3vp5m.php?page=piedritas-para-pegar-en-la-cara-62d29f'>Piedritas Para Pegar En La Cara</a>,
<a href='http://suam.cucsh.udg.mx/inscripciones2020b/storage/blog/n3vp5m.php?page=ex-de-laura-g-62d29f'>Ex De Laura G</a>,
<a href='http://suam.cucsh.udg.mx/inscripciones2020b/storage/blog/n3vp5m.php?page=falcon-marvel-62d29f'>Falcon Marvel</a>,
<a href='http://suam.cucsh.udg.mx/inscripciones2020b/storage/blog/n3vp5m.php?page=esteban-loaiza-habla-de-chiquis-62d29f'>Esteban Loaiza Habla De Chiquis</a>,
<a href='http://suam.cucsh.udg.mx/inscripciones2020b/storage/blog/n3vp5m.php?page=claudio-ochoa-huerta-porque-sale-de-televisa-62d29f'>Claudio Ochoa Huerta Porque Sale De Televisa</a>,
<a href='http://suam.cucsh.udg.mx/inscripciones2020b/storage/blog/n3vp5m.php?page=las-normas-de-la-casa-de-sidra-pel%C3%ADcula-completa-62d29f'>Las Normas De La Casa De Sidra Película Completa</a>,
<a href='http://suam.cucsh.udg.mx/inscripciones2020b/storage/blog/n3vp5m.php?page=carlos-pozos-soto-doctorado-62d29f'>Carlos Pozos Soto Doctorado</a>,
<a href='http://suam.cucsh.udg.mx/inscripciones2020b/storage/blog/n3vp5m.php?page=querida-socia-jenni-rivera-letra-62d29f'>Querida Socia Jenni Rivera Letra</a>,
";s:7:"expired";i:-1;}